<svg width="44" height="25" viewBox="0 0 44 25" fill="none" xmlns="http://www.w3.org/2000/svg">
    <rect x="1.5" y="1.5" width="41" height="23" rx="10.5" stroke="white" />
    <path
        d="M9.193 19V9.072C9.193 8.562 9.30633 8.10867 9.533 7.712C9.75967 7.31533 10.0713 7.00367 10.468 6.777C10.8647 6.55033 11.3237 6.437 11.845 6.437C12.2077 6.437 12.5477 6.505 12.865 6.641C13.1823 6.777 13.4373 6.95833 13.63 7.185L13.035 8.528C12.8877 8.392 12.7233 8.28433 12.542 8.205C12.372 8.11433 12.2077 8.069 12.049 8.069C11.811 8.069 11.607 8.10867 11.437 8.188C11.2783 8.256 11.1593 8.36933 11.08 8.528C11.0007 8.67533 10.961 8.85667 10.961 9.072V19H10.077C9.92967 19 9.78233 19 9.635 19C9.48767 19 9.34033 19 9.193 19ZM7.765 11.843V10.228H13.069V11.843H7.765ZM14.939 19V6.42H16.69V19H14.939ZM24.2854 19V13.186C24.2854 12.6873 24.1041 12.285 23.7414 11.979C23.3901 11.6617 22.9424 11.503 22.3984 11.503C21.8997 11.503 21.4464 11.605 21.0384 11.809C20.6417 12.013 20.2791 12.3247 19.9504 12.744L18.8114 11.605C19.3441 11.027 19.9164 10.5963 20.5284 10.313C21.1517 10.0297 21.8204 9.888 22.5344 9.888C23.2144 9.888 23.8037 10.0013 24.3024 10.228C24.8011 10.4547 25.1864 10.789 25.4584 11.231C25.7304 11.6617 25.8664 12.1887 25.8664 12.812V19H24.2854ZM21.6164 19.17C21.0384 19.17 20.5227 19.0567 20.0694 18.83C19.6161 18.6033 19.2534 18.2917 18.9814 17.895C18.7207 17.487 18.5904 17.011 18.5904 16.467C18.5904 15.991 18.6754 15.5717 18.8454 15.209C19.0154 14.8463 19.2647 14.546 19.5934 14.308C19.9334 14.07 20.3527 13.8887 20.8514 13.764C21.3614 13.6393 21.9451 13.577 22.6024 13.577H25.0844L24.9314 14.971H22.3814C22.0414 14.971 21.7354 15.005 21.4634 15.073C21.2027 15.1297 20.9761 15.226 20.7834 15.362C20.6021 15.4867 20.4661 15.6397 20.3754 15.821C20.2847 15.991 20.2394 16.195 20.2394 16.433C20.2394 16.6823 20.3017 16.9033 20.4264 17.096C20.5511 17.2773 20.7211 17.419 20.9364 17.521C21.1517 17.623 21.4011 17.674 21.6844 17.674C22.0924 17.674 22.4777 17.606 22.8404 17.47C23.2144 17.3227 23.5431 17.1243 23.8264 16.875C24.1211 16.6257 24.3477 16.348 24.5064 16.042L24.9144 17.181C24.6764 17.5777 24.3817 17.9233 24.0304 18.218C23.6791 18.5127 23.2994 18.745 22.8914 18.915C22.4834 19.085 22.0584 19.17 21.6164 19.17ZM31.8705 19.17C31.0431 19.17 30.3008 18.966 29.6435 18.558C28.9975 18.15 28.4818 17.5947 28.0965 16.892C27.7225 16.1893 27.5355 15.4017 27.5355 14.529C27.5355 13.6563 27.7225 12.8687 28.0965 12.166C28.4818 11.4633 28.9975 10.908 29.6435 10.5C30.3008 10.092 31.0431 9.888 31.8705 9.888C32.6638 9.888 33.3835 10.0523 34.0295 10.381C34.6868 10.6983 35.1855 11.1347 35.5255 11.69L34.5565 12.88C34.3751 12.6193 34.1428 12.3813 33.8595 12.166C33.5761 11.9507 33.2758 11.7807 32.9585 11.656C32.6411 11.5313 32.3351 11.469 32.0405 11.469C31.4965 11.469 31.0091 11.605 30.5785 11.877C30.1591 12.1377 29.8248 12.5003 29.5755 12.965C29.3261 13.4297 29.2015 13.951 29.2015 14.529C29.2015 15.107 29.3318 15.6283 29.5925 16.093C29.8531 16.5463 30.1988 16.909 30.6295 17.181C31.0601 17.453 31.5361 17.589 32.0575 17.589C32.3635 17.589 32.6581 17.538 32.9415 17.436C33.2361 17.334 33.5195 17.181 33.7915 16.977C34.0635 16.773 34.3185 16.5237 34.5565 16.229L35.5255 17.419C35.1628 17.929 34.6415 18.3483 33.9615 18.677C33.2928 19.0057 32.5958 19.17 31.8705 19.17Z"
        fill="white" />
</svg>