<svg width="44" height="25" viewBox="0 0 44 25" fill="none" xmlns="http://www.w3.org/2000/svg">
    <rect x="1.5" y="1.5" width="41" height="23" rx="10.5" stroke="white" />
    <path
        d="M8.72 17V11.75H9.76V13.4L9.66 13C9.73333 12.7467 9.85667 12.5167 10.03 12.31C10.21 12.1033 10.4133 11.94 10.64 11.82C10.8733 11.7 11.1133 11.64 11.36 11.64C11.4733 11.64 11.58 11.65 11.68 11.67C11.7867 11.69 11.87 11.7133 11.93 11.74L11.66 12.86C11.58 12.8267 11.49 12.8 11.39 12.78C11.2967 12.7533 11.2033 12.74 11.11 12.74C10.93 12.74 10.7567 12.7767 10.59 12.85C10.43 12.9167 10.2867 13.0133 10.16 13.14C10.04 13.26 9.94333 13.4033 9.87 13.57C9.79667 13.73 9.76 13.9067 9.76 14.1V17H8.72ZM14.9786 17.1C14.4386 17.1 13.9586 16.9867 13.5386 16.76C13.1253 16.5267 12.7986 16.21 12.5586 15.81C12.3253 15.41 12.2086 14.95 12.2086 14.43C12.2086 14.0167 12.2753 13.64 12.4086 13.3C12.5419 12.96 12.7253 12.6667 12.9586 12.42C13.1986 12.1667 13.4819 11.9733 13.8086 11.84C14.1419 11.7 14.5019 11.63 14.8886 11.63C15.2286 11.63 15.5453 11.6967 15.8386 11.83C16.1319 11.9567 16.3853 12.1333 16.5986 12.36C16.8186 12.5867 16.9853 12.8567 17.0986 13.17C17.2186 13.4767 17.2753 13.8133 17.2686 14.18L17.2586 14.62H12.9686L12.7386 13.8H16.3686L16.2186 13.97V13.73C16.1986 13.51 16.1253 13.3133 15.9986 13.14C15.8719 12.9667 15.7119 12.83 15.5186 12.73C15.3253 12.63 15.1153 12.58 14.8886 12.58C14.5286 12.58 14.2253 12.65 13.9786 12.79C13.7319 12.9233 13.5453 13.1233 13.4186 13.39C13.2919 13.65 13.2286 13.9733 13.2286 14.36C13.2286 14.7267 13.3053 15.0467 13.4586 15.32C13.6119 15.5867 13.8286 15.7933 14.1086 15.94C14.3886 16.0867 14.7119 16.16 15.0786 16.16C15.3386 16.16 15.5786 16.1167 15.7986 16.03C16.0253 15.9433 16.2686 15.7867 16.5286 15.56L17.0486 16.29C16.8886 16.45 16.6919 16.59 16.4586 16.71C16.2319 16.83 15.9886 16.9267 15.7286 17C15.4753 17.0667 15.2253 17.1 14.9786 17.1ZM18.368 17V11.75H19.408V12.87L19.218 12.99C19.2713 12.8167 19.3546 12.65 19.468 12.49C19.588 12.33 19.7313 12.19 19.898 12.07C20.0713 11.9433 20.2546 11.8433 20.448 11.77C20.648 11.6967 20.8513 11.66 21.058 11.66C21.358 11.66 21.6213 11.71 21.848 11.81C22.0746 11.91 22.2613 12.06 22.408 12.26C22.5546 12.46 22.6613 12.71 22.728 13.01L22.568 12.97L22.638 12.8C22.7113 12.6467 22.8113 12.5033 22.938 12.37C23.0713 12.23 23.2213 12.1067 23.388 12C23.5546 11.8933 23.7313 11.81 23.918 11.75C24.1046 11.69 24.288 11.66 24.468 11.66C24.8613 11.66 25.1846 11.74 25.438 11.9C25.698 12.06 25.8913 12.3033 26.018 12.63C26.1513 12.9567 26.218 13.3633 26.218 13.85V17H25.178V13.91C25.178 13.4633 25.0913 13.1367 24.918 12.93C24.7513 12.7167 24.488 12.61 24.128 12.61C23.9413 12.61 23.7646 12.6433 23.598 12.71C23.438 12.77 23.298 12.8567 23.178 12.97C23.058 13.0833 22.9646 13.2167 22.898 13.37C22.8313 13.5167 22.798 13.68 22.798 13.86V17H21.758V13.89C21.758 13.4767 21.668 13.16 21.488 12.94C21.3146 12.72 21.0613 12.61 20.728 12.61C20.5413 12.61 20.368 12.6433 20.208 12.71C20.048 12.77 19.908 12.8567 19.788 12.97C19.668 13.0767 19.5746 13.2067 19.508 13.36C19.4413 13.5067 19.408 13.6667 19.408 13.84V17H18.368ZM27.767 17V11.75H28.797V17H27.767ZM28.267 10.59C28.047 10.59 27.877 10.5333 27.757 10.42C27.637 10.3067 27.577 10.1467 27.577 9.94C27.577 9.74667 27.637 9.59 27.757 9.47C27.8836 9.35 28.0536 9.29 28.267 9.29C28.487 9.29 28.657 9.34667 28.777 9.46C28.897 9.57333 28.957 9.73333 28.957 9.94C28.957 10.1333 28.8936 10.29 28.767 10.41C28.647 10.53 28.4803 10.59 28.267 10.59ZM33.8702 17L32.1702 14.79L32.0202 14.6L29.8102 11.75H31.1102L32.7802 13.93L32.9502 14.15L35.1302 17H33.8702ZM29.8202 17L31.8902 14.3L32.5002 15.03L31.0402 17H29.8202ZM33.0102 14.46L32.4402 13.74L33.7302 11.75H34.9502L33.0102 14.46Z"
        fill="white" />
</svg>