<svg width="42" height="24" viewBox="0 0 42 24" fill="none" xmlns="http://www.w3.org/2000/svg">
    <g clip-path="url(#clip0_30_6)">
        <rect x="0.5" y="0.5" width="41" height="23" rx="10.5" stroke="white" />
        <path
            d="M4.792 16V10.225H5.936V12.04L5.826 11.6C5.90667 11.3213 6.04233 11.0683 6.233 10.841C6.431 10.6137 6.65467 10.434 6.904 10.302C7.16067 10.17 7.42467 10.104 7.696 10.104C7.82067 10.104 7.938 10.115 8.048 10.137C8.16533 10.159 8.257 10.1847 8.323 10.214L8.026 11.446C7.938 11.4093 7.839 11.38 7.729 11.358C7.62633 11.3287 7.52367 11.314 7.421 11.314C7.223 11.314 7.03233 11.3543 6.849 11.435C6.673 11.5083 6.51533 11.6147 6.376 11.754C6.244 11.886 6.13767 12.0437 6.057 12.227C5.97633 12.403 5.936 12.5973 5.936 12.81V16H4.792ZM11.6765 16.11C11.0825 16.11 10.5545 15.9853 10.0925 15.736C9.63779 15.4793 9.27845 15.131 9.01445 14.691C8.75779 14.251 8.62945 13.745 8.62945 13.173C8.62945 12.7183 8.70279 12.304 8.84945 11.93C8.99612 11.556 9.19779 11.2333 9.45445 10.962C9.71845 10.6833 10.0301 10.4707 10.3895 10.324C10.7561 10.17 11.1521 10.093 11.5775 10.093C11.9515 10.093 12.2998 10.1663 12.6225 10.313C12.9451 10.4523 13.2238 10.6467 13.4585 10.896C13.7005 11.1453 13.8838 11.4423 14.0085 11.787C14.1405 12.1243 14.2028 12.4947 14.1955 12.898L14.1845 13.382H9.46545L9.21245 12.48H13.2055L13.0405 12.667V12.403C13.0185 12.161 12.9378 11.9447 12.7985 11.754C12.6591 11.5633 12.4831 11.413 12.2705 11.303C12.0578 11.193 11.8268 11.138 11.5775 11.138C11.1815 11.138 10.8478 11.215 10.5765 11.369C10.3051 11.5157 10.0998 11.7357 9.96045 12.029C9.82112 12.315 9.75145 12.6707 9.75145 13.096C9.75145 13.4993 9.83579 13.8513 10.0045 14.152C10.1731 14.4453 10.4115 14.6727 10.7195 14.834C11.0275 14.9953 11.3831 15.076 11.7865 15.076C12.0725 15.076 12.3365 15.0283 12.5785 14.933C12.8278 14.8377 13.0955 14.6653 13.3815 14.416L13.9535 15.219C13.7775 15.395 13.5611 15.549 13.3045 15.681C13.0551 15.813 12.7875 15.9193 12.5015 16C12.2228 16.0733 11.9478 16.11 11.6765 16.11ZM17.2113 16L14.7693 10.225H15.9903L17.7503 14.548L17.5413 14.647L19.4223 10.225H20.5883L18.0253 16H17.2113ZM24.1589 16.11C23.5649 16.11 23.0369 15.9853 22.5749 15.736C22.1202 15.4793 21.7609 15.131 21.4969 14.691C21.2402 14.251 21.1119 13.745 21.1119 13.173C21.1119 12.7183 21.1852 12.304 21.3319 11.93C21.4785 11.556 21.6802 11.2333 21.9369 10.962C22.2009 10.6833 22.5125 10.4707 22.8719 10.324C23.2385 10.17 23.6345 10.093 24.0599 10.093C24.4339 10.093 24.7822 10.1663 25.1049 10.313C25.4275 10.4523 25.7062 10.6467 25.9409 10.896C26.1829 11.1453 26.3662 11.4423 26.4909 11.787C26.6229 12.1243 26.6852 12.4947 26.6779 12.898L26.6669 13.382H21.9479L21.6949 12.48H25.6879L25.5229 12.667V12.403C25.5009 12.161 25.4202 11.9447 25.2809 11.754C25.1415 11.5633 24.9655 11.413 24.7529 11.303C24.5402 11.193 24.3092 11.138 24.0599 11.138C23.6639 11.138 23.3302 11.215 23.0589 11.369C22.7875 11.5157 22.5822 11.7357 22.4429 12.029C22.3035 12.315 22.2339 12.6707 22.2339 13.096C22.2339 13.4993 22.3182 13.8513 22.4869 14.152C22.6555 14.4453 22.8939 14.6727 23.2019 14.834C23.5099 14.9953 23.8655 15.076 24.2689 15.076C24.5549 15.076 24.8189 15.0283 25.0609 14.933C25.3102 14.8377 25.5779 14.6653 25.8639 14.416L26.4359 15.219C26.2599 15.395 26.0435 15.549 25.7869 15.681C25.5375 15.813 25.2699 15.9193 24.9839 16C24.7052 16.0733 24.4302 16.11 24.1589 16.11ZM27.9092 16V10.225H29.0532V12.04L28.9432 11.6C29.0239 11.3213 29.1595 11.0683 29.3502 10.841C29.5482 10.6137 29.7719 10.434 30.0212 10.302C30.2779 10.17 30.5419 10.104 30.8132 10.104C30.9379 10.104 31.0552 10.115 31.1652 10.137C31.2825 10.159 31.3742 10.1847 31.4402 10.214L31.1432 11.446C31.0552 11.4093 30.9562 11.38 30.8462 11.358C30.7435 11.3287 30.6409 11.314 30.5382 11.314C30.3402 11.314 30.1495 11.3543 29.9662 11.435C29.7902 11.5083 29.6325 11.6147 29.4932 11.754C29.3612 11.886 29.2549 12.0437 29.1742 12.227C29.0935 12.403 29.0532 12.5973 29.0532 12.81V16H27.9092ZM35.3817 16.11C35.1324 16.11 34.883 16.0697 34.6337 15.989C34.3917 15.9083 34.168 15.802 33.9627 15.67C33.7647 15.5307 33.596 15.3803 33.4567 15.219C33.3247 15.0503 33.2367 14.8817 33.1927 14.713L33.4787 14.559V15.967H32.3457V7.86H33.4787V11.545L33.3027 11.446C33.3394 11.2773 33.42 11.116 33.5447 10.962C33.6694 10.8007 33.827 10.6577 34.0177 10.533C34.2157 10.401 34.4284 10.2983 34.6557 10.225C34.883 10.1443 35.114 10.104 35.3487 10.104C35.8694 10.104 36.3314 10.2323 36.7347 10.489C37.138 10.7457 37.457 11.1013 37.6917 11.556C37.9264 12.0033 38.0437 12.5167 38.0437 13.096C38.0437 13.6753 37.9264 14.1923 37.6917 14.647C37.4644 15.1017 37.149 15.461 36.7457 15.725C36.3424 15.9817 35.8877 16.11 35.3817 16.11ZM35.1947 15.076C35.532 15.076 35.8327 14.9917 36.0967 14.823C36.3607 14.647 36.5697 14.4123 36.7237 14.119C36.8777 13.8183 36.9547 13.4773 36.9547 13.096C36.9547 12.722 36.8777 12.3883 36.7237 12.095C36.577 11.7943 36.3717 11.5597 36.1077 11.391C35.8437 11.2223 35.5394 11.138 35.1947 11.138C34.85 11.138 34.5457 11.2223 34.2817 11.391C34.0177 11.5597 33.8087 11.7943 33.6547 12.095C33.5007 12.3883 33.4237 12.722 33.4237 13.096C33.4237 13.4773 33.5007 13.8183 33.6547 14.119C33.8087 14.4123 34.0177 14.647 34.2817 14.823C34.5457 14.9917 34.85 15.076 35.1947 15.076Z"
            fill="white" />
    </g>
</svg>