<svg width="44" height="25" viewBox="0 0 44 25" fill="none" xmlns="http://www.w3.org/2000/svg">
<rect x="1.5" y="1.5" width="41" height="23" rx="10.5" stroke="white"/>
<path d="M7.47 16.1C7.03 16.1 6.63333 16.0233 6.28 15.87C5.92667 15.7167 5.63333 15.49 5.4 15.19L6.1 14.59C6.3 14.8233 6.51667 14.9933 6.75 15.1C6.99 15.2 7.26 15.25 7.56 15.25C7.68 15.25 7.79 15.2367 7.89 15.21C7.99667 15.1767 8.08667 15.13 8.16 15.07C8.24 15.01 8.3 14.94 8.34 14.86C8.38 14.7733 8.4 14.68 8.4 14.58C8.4 14.4067 8.33667 14.2667 8.21 14.16C8.14333 14.1133 8.03667 14.0633 7.89 14.01C7.75 13.95 7.56667 13.89 7.34 13.83C6.95333 13.73 6.63667 13.6167 6.39 13.49C6.14333 13.3633 5.95333 13.22 5.82 13.06C5.72 12.9333 5.64667 12.7967 5.6 12.65C5.55333 12.4967 5.53 12.33 5.53 12.15C5.53 11.8567 5.61333 11.5967 5.78 11.37C5.94667 11.1433 6.17 10.9667 6.45 10.84C6.73667 10.7067 7.05667 10.64 7.41 10.64C7.65667 10.64 7.9 10.6733 8.14 10.74C8.38667 10.8067 8.61333 10.9033 8.82 11.03C9.02667 11.1567 9.2 11.3067 9.34 11.48L8.75 12.13C8.62333 12.0033 8.48333 11.8933 8.33 11.8C8.18333 11.7 8.03333 11.6233 7.88 11.57C7.72667 11.5167 7.58667 11.49 7.46 11.49C7.32 11.49 7.19333 11.5033 7.08 11.53C6.96667 11.5567 6.87 11.5967 6.79 11.65C6.71667 11.7033 6.66 11.77 6.62 11.85C6.58 11.93 6.56 12.02 6.56 12.12C6.56667 12.2067 6.58667 12.29 6.62 12.37C6.66 12.4433 6.71333 12.5067 6.78 12.56C6.85333 12.6133 6.96333 12.67 7.11 12.73C7.25667 12.79 7.44333 12.8467 7.67 12.9C8.00333 12.9867 8.27667 13.0833 8.49 13.19C8.71 13.29 8.88333 13.4067 9.01 13.54C9.14333 13.6667 9.23667 13.8133 9.29 13.98C9.34333 14.1467 9.37 14.3333 9.37 14.54C9.37 14.84 9.28333 15.11 9.11 15.35C8.94333 15.5833 8.71667 15.7667 8.43 15.9C8.14333 16.0333 7.82333 16.1 7.47 16.1ZM10.5252 16V8.6H11.5552V16H10.5252ZM15.2773 16.1C14.7639 16.1 14.3039 15.9833 13.8973 15.75C13.4973 15.51 13.1806 15.1867 12.9473 14.78C12.7139 14.3667 12.5973 13.8967 12.5973 13.37C12.5973 12.8433 12.7139 12.3767 12.9473 11.97C13.1806 11.5567 13.4973 11.2333 13.8973 11C14.3039 10.76 14.7639 10.64 15.2773 10.64C15.7839 10.64 16.2373 10.76 16.6373 11C17.0439 11.2333 17.3639 11.5567 17.5973 11.97C17.8306 12.3767 17.9473 12.8433 17.9473 13.37C17.9473 13.8967 17.8306 14.3667 17.5973 14.78C17.3639 15.1867 17.0439 15.51 16.6373 15.75C16.2373 15.9833 15.7839 16.1 15.2773 16.1ZM15.2773 15.16C15.5906 15.16 15.8706 15.0833 16.1173 14.93C16.3639 14.77 16.5573 14.5567 16.6973 14.29C16.8373 14.0167 16.9039 13.71 16.8973 13.37C16.9039 13.0233 16.8373 12.7167 16.6973 12.45C16.5573 12.1767 16.3639 11.9633 16.1173 11.81C15.8706 11.6567 15.5906 11.58 15.2773 11.58C14.9639 11.58 14.6806 11.66 14.4273 11.82C14.1806 11.9733 13.9873 12.1867 13.8473 12.46C13.7073 12.7267 13.6406 13.03 13.6473 13.37C13.6406 13.71 13.7073 14.0167 13.8473 14.29C13.9873 14.5567 14.1806 14.77 14.4273 14.93C14.6806 15.0833 14.9639 15.16 15.2773 15.16ZM20.1643 16L18.3743 10.75L19.4143 10.74L20.6943 14.67L20.4643 14.65L21.8543 11.58H22.4743L23.8743 14.66L23.6043 14.68L24.8943 10.75H25.9343L24.1643 16H23.4543L21.9943 12.66L22.2243 12.69L20.8643 16H20.1643ZM29.1759 16.1C28.6359 16.1 28.1559 15.9867 27.7359 15.76C27.3225 15.5267 26.9959 15.21 26.7559 14.81C26.5225 14.41 26.4059 13.95 26.4059 13.43C26.4059 13.0167 26.4725 12.64 26.6059 12.3C26.7392 11.96 26.9225 11.6667 27.1559 11.42C27.3959 11.1667 27.6792 10.9733 28.0059 10.84C28.3392 10.7 28.6992 10.63 29.0859 10.63C29.4259 10.63 29.7425 10.6967 30.0359 10.83C30.3292 10.9567 30.5825 11.1333 30.7959 11.36C31.0159 11.5867 31.1825 11.8567 31.2959 12.17C31.4159 12.4767 31.4725 12.8133 31.4659 13.18L31.4559 13.62H27.1659L26.9359 12.8H30.5659L30.4159 12.97V12.73C30.3959 12.51 30.3225 12.3133 30.1959 12.14C30.0692 11.9667 29.9092 11.83 29.7159 11.73C29.5225 11.63 29.3125 11.58 29.0859 11.58C28.7259 11.58 28.4225 11.65 28.1759 11.79C27.9292 11.9233 27.7425 12.1233 27.6159 12.39C27.4892 12.65 27.4259 12.9733 27.4259 13.36C27.4259 13.7267 27.5025 14.0467 27.6559 14.32C27.8092 14.5867 28.0259 14.7933 28.3059 14.94C28.5859 15.0867 28.9092 15.16 29.2759 15.16C29.5359 15.16 29.7759 15.1167 29.9959 15.03C30.2225 14.9433 30.4659 14.7867 30.7259 14.56L31.2459 15.29C31.0859 15.45 30.8892 15.59 30.6559 15.71C30.4292 15.83 30.1859 15.9267 29.9259 16C29.6725 16.0667 29.4225 16.1 29.1759 16.1ZM34.7752 16.1C34.2952 16.1 33.8652 15.9833 33.4852 15.75C33.1119 15.51 32.8152 15.1867 32.5952 14.78C32.3752 14.3667 32.2652 13.8967 32.2652 13.37C32.2652 12.8433 32.3719 12.3767 32.5852 11.97C32.8052 11.5567 33.1019 11.2333 33.4752 11C33.8486 10.76 34.2719 10.64 34.7452 10.64C35.0052 10.64 35.2552 10.6833 35.4952 10.77C35.7419 10.85 35.9619 10.9633 36.1552 11.11C36.3486 11.25 36.4986 11.4067 36.6052 11.58C36.7186 11.7467 36.7752 11.9167 36.7752 12.09L36.4752 12.11V8.6H37.5052V16H36.4752V14.75H36.6752C36.6752 14.91 36.6219 15.07 36.5152 15.23C36.4086 15.3833 36.2652 15.5267 36.0852 15.66C35.9119 15.7933 35.7086 15.9 35.4752 15.98C35.2486 16.06 35.0152 16.1 34.7752 16.1ZM34.9152 15.21C35.2286 15.21 35.5052 15.13 35.7452 14.97C35.9852 14.81 36.1719 14.5933 36.3052 14.32C36.4452 14.04 36.5152 13.7233 36.5152 13.37C36.5152 13.0167 36.4452 12.7033 36.3052 12.43C36.1719 12.15 35.9852 11.93 35.7452 11.77C35.5052 11.61 35.2286 11.53 34.9152 11.53C34.6019 11.53 34.3252 11.61 34.0852 11.77C33.8452 11.93 33.6552 12.15 33.5152 12.43C33.3819 12.7033 33.3152 13.0167 33.3152 13.37C33.3152 13.7233 33.3819 14.04 33.5152 14.32C33.6552 14.5933 33.8452 14.81 34.0852 14.97C34.3252 15.13 34.6019 15.21 34.9152 15.21Z" fill="white"/>
</svg>
