<svg width="42" height="24" viewBox="0 0 42 24" fill="none" xmlns="http://www.w3.org/2000/svg">
<g clip-path="url(#clip0_31_2)">
<rect x="0.5" y="0.5" width="41" height="23" rx="10.5" stroke="white"/>
<path d="M6.976 15.08C6.624 15.08 6.30667 15.0187 6.024 14.896C5.74133 14.7733 5.50667 14.592 5.32 14.352L5.88 13.872C6.04 14.0587 6.21333 14.1947 6.4 14.28C6.592 14.36 6.808 14.4 7.048 14.4C7.144 14.4 7.232 14.3893 7.312 14.368C7.39733 14.3413 7.46933 14.304 7.528 14.256C7.592 14.208 7.64 14.152 7.672 14.088C7.704 14.0187 7.72 13.944 7.72 13.864C7.72 13.7253 7.66933 13.6133 7.568 13.528C7.51467 13.4907 7.42933 13.4507 7.312 13.408C7.2 13.36 7.05333 13.312 6.872 13.264C6.56267 13.184 6.30933 13.0933 6.112 12.992C5.91467 12.8907 5.76267 12.776 5.656 12.648C5.576 12.5467 5.51733 12.4373 5.48 12.32C5.44267 12.1973 5.424 12.064 5.424 11.92C5.424 11.6853 5.49067 11.4773 5.624 11.296C5.75733 11.1147 5.936 10.9733 6.16 10.872C6.38933 10.7653 6.64533 10.712 6.928 10.712C7.12533 10.712 7.32 10.7387 7.512 10.792C7.70933 10.8453 7.89067 10.9227 8.056 11.024C8.22133 11.1253 8.36 11.2453 8.472 11.384L8 11.904C7.89867 11.8027 7.78667 11.7147 7.664 11.64C7.54667 11.56 7.42667 11.4987 7.304 11.456C7.18133 11.4133 7.06933 11.392 6.968 11.392C6.856 11.392 6.75467 11.4027 6.664 11.424C6.57333 11.4453 6.496 11.4773 6.432 11.52C6.37333 11.5627 6.328 11.616 6.296 11.68C6.264 11.744 6.248 11.816 6.248 11.896C6.25333 11.9653 6.26933 12.032 6.296 12.096C6.328 12.1547 6.37067 12.2053 6.424 12.248C6.48267 12.2907 6.57067 12.336 6.688 12.384C6.80533 12.432 6.95467 12.4773 7.136 12.52C7.40267 12.5893 7.62133 12.6667 7.792 12.752C7.968 12.832 8.10667 12.9253 8.208 13.032C8.31467 13.1333 8.38933 13.2507 8.432 13.384C8.47467 13.5173 8.496 13.6667 8.496 13.832C8.496 14.072 8.42667 14.288 8.288 14.48C8.15467 14.6667 7.97333 14.8133 7.744 14.92C7.51467 15.0267 7.25867 15.08 6.976 15.08ZM9.40413 16.76V10.8H10.2361V11.76L10.1081 11.688C10.1401 11.528 10.2308 11.376 10.3801 11.232C10.5295 11.0827 10.7108 10.9627 10.9241 10.872C11.1428 10.776 11.3668 10.728 11.5961 10.728C11.9748 10.728 12.3108 10.8213 12.6041 11.008C12.8975 11.1947 13.1295 11.4507 13.3001 11.776C13.4708 12.1013 13.5561 12.4747 13.5561 12.896C13.5561 13.312 13.4708 13.6853 13.3001 14.016C13.1348 14.3413 12.9055 14.6 12.6121 14.792C12.3188 14.9787 11.9881 15.072 11.6201 15.072C11.3748 15.072 11.1375 15.024 10.9081 14.928C10.6788 14.8267 10.4841 14.6987 10.3241 14.544C10.1641 14.3893 10.0655 14.2293 10.0281 14.064L10.2361 13.952V16.76H9.40413ZM11.4841 14.312C11.7295 14.312 11.9481 14.2507 12.1401 14.128C12.3321 14.0053 12.4841 13.8373 12.5961 13.624C12.7081 13.4107 12.7641 13.168 12.7641 12.896C12.7641 12.624 12.7081 12.384 12.5961 12.176C12.4895 11.9627 12.3401 11.7947 12.1481 11.672C11.9561 11.5493 11.7348 11.488 11.4841 11.488C11.2335 11.488 11.0121 11.5493 10.8201 11.672C10.6281 11.7893 10.4761 11.9547 10.3641 12.168C10.2521 12.3813 10.1961 12.624 10.1961 12.896C10.1961 13.168 10.2521 13.4107 10.3641 13.624C10.4761 13.8373 10.6281 14.0053 10.8201 14.128C11.0121 14.2507 11.2335 14.312 11.4841 14.312ZM16.411 15.08C15.979 15.08 15.595 14.9893 15.259 14.808C14.9283 14.6213 14.667 14.368 14.475 14.048C14.2883 13.728 14.195 13.36 14.195 12.944C14.195 12.6133 14.2483 12.312 14.355 12.04C14.4617 11.768 14.6083 11.5333 14.795 11.336C14.987 11.1333 15.2137 10.9787 15.475 10.872C15.7417 10.76 16.0297 10.704 16.339 10.704C16.611 10.704 16.8643 10.7573 17.099 10.864C17.3337 10.9653 17.5363 11.1067 17.707 11.288C17.883 11.4693 18.0163 11.6853 18.107 11.936C18.203 12.1813 18.2483 12.4507 18.243 12.744L18.235 13.096H14.803L14.619 12.44H17.523L17.403 12.576V12.384C17.387 12.208 17.3283 12.0507 17.227 11.912C17.1257 11.7733 16.9977 11.664 16.843 11.584C16.6883 11.504 16.5203 11.464 16.339 11.464C16.051 11.464 15.8083 11.52 15.611 11.632C15.4137 11.7387 15.2643 11.8987 15.163 12.112C15.0617 12.32 15.011 12.5787 15.011 12.888C15.011 13.1813 15.0723 13.4373 15.195 13.656C15.3177 13.8693 15.491 14.0347 15.715 14.152C15.939 14.2693 16.1977 14.328 16.491 14.328C16.699 14.328 16.891 14.2933 17.067 14.224C17.2483 14.1547 17.443 14.0293 17.651 13.848L18.067 14.432C17.939 14.56 17.7817 14.672 17.595 14.768C17.4137 14.864 17.219 14.9413 17.011 15C16.8083 15.0533 16.6083 15.08 16.411 15.08ZM20.8905 15.08C20.5065 15.08 20.1625 14.9867 19.8585 14.8C19.5598 14.608 19.3225 14.3493 19.1465 14.024C18.9705 13.6933 18.8825 13.3173 18.8825 12.896C18.8825 12.4747 18.9678 12.1013 19.1385 11.776C19.3145 11.4453 19.5518 11.1867 19.8505 11C20.1492 10.808 20.4878 10.712 20.8665 10.712C21.0745 10.712 21.2745 10.7467 21.4665 10.816C21.6638 10.88 21.8398 10.9707 21.9945 11.088C22.1492 11.2 22.2692 11.3253 22.3545 11.464C22.4452 11.5973 22.4905 11.7333 22.4905 11.872L22.2505 11.888V9.08H23.0745V15H22.2505V14H22.4105C22.4105 14.128 22.3678 14.256 22.2825 14.384C22.1972 14.5067 22.0825 14.6213 21.9385 14.728C21.7998 14.8347 21.6372 14.92 21.4505 14.984C21.2692 15.048 21.0825 15.08 20.8905 15.08ZM21.0025 14.368C21.2532 14.368 21.4745 14.304 21.6665 14.176C21.8585 14.048 22.0078 13.8747 22.1145 13.656C22.2265 13.432 22.2825 13.1787 22.2825 12.896C22.2825 12.6133 22.2265 12.3627 22.1145 12.144C22.0078 11.92 21.8585 11.744 21.6665 11.616C21.4745 11.488 21.2532 11.424 21.0025 11.424C20.7518 11.424 20.5305 11.488 20.3385 11.616C20.1465 11.744 19.9945 11.92 19.8825 12.144C19.7758 12.3627 19.7225 12.6133 19.7225 12.896C19.7225 13.1787 19.7758 13.432 19.8825 13.656C19.9945 13.8747 20.1465 14.048 20.3385 14.176C20.5305 14.304 20.7518 14.368 21.0025 14.368ZM27.923 15.08C27.6243 15.08 27.363 15.0107 27.139 14.872C26.9203 14.7333 26.7497 14.5387 26.627 14.288C26.5097 14.0373 26.451 13.7387 26.451 13.392V10.8H27.275V13.168C27.275 13.536 27.3603 13.8267 27.531 14.04C27.707 14.2533 27.9497 14.36 28.259 14.36C28.4137 14.36 28.555 14.336 28.683 14.288C28.811 14.2347 28.9203 14.1627 29.011 14.072C29.107 13.9813 29.1817 13.872 29.235 13.744C29.2883 13.616 29.315 13.4773 29.315 13.328V10.8H30.139V15H29.315V14.12L29.459 14.024C29.395 14.2213 29.2857 14.4 29.131 14.56C28.9817 14.72 28.803 14.848 28.595 14.944C28.387 15.0347 28.163 15.08 27.923 15.08ZM31.2948 16.76V10.8H32.1268V11.76L31.9988 11.688C32.0308 11.528 32.1214 11.376 32.2708 11.232C32.4201 11.0827 32.6014 10.9627 32.8148 10.872C33.0334 10.776 33.2574 10.728 33.4868 10.728C33.8654 10.728 34.2014 10.8213 34.4948 11.008C34.7881 11.1947 35.0201 11.4507 35.1908 11.776C35.3614 12.1013 35.4468 12.4747 35.4468 12.896C35.4468 13.312 35.3614 13.6853 35.1908 14.016C35.0254 14.3413 34.7961 14.6 34.5028 14.792C34.2094 14.9787 33.8788 15.072 33.5108 15.072C33.2654 15.072 33.0281 15.024 32.7988 14.928C32.5694 14.8267 32.3748 14.6987 32.2148 14.544C32.0548 14.3893 31.9561 14.2293 31.9188 14.064L32.1268 13.952V16.76H31.2948ZM33.3748 14.312C33.6201 14.312 33.8388 14.2507 34.0308 14.128C34.2228 14.0053 34.3748 13.8373 34.4868 13.624C34.5988 13.4107 34.6548 13.168 34.6548 12.896C34.6548 12.624 34.5988 12.384 34.4868 12.176C34.3801 11.9627 34.2308 11.7947 34.0388 11.672C33.8468 11.5493 33.6254 11.488 33.3748 11.488C33.1241 11.488 32.9028 11.5493 32.7108 11.672C32.5188 11.7893 32.3668 11.9547 32.2548 12.168C32.1428 12.3813 32.0868 12.624 32.0868 12.896C32.0868 13.168 32.1428 13.4107 32.2548 13.624C32.3668 13.8373 32.5188 14.0053 32.7108 14.128C32.9028 14.2507 33.1241 14.312 33.3748 14.312Z" fill="white"/>
</g>
<defs>
<clipPath id="clip0_31_2">
<rect width="42" height="24" fill="white"/>
</clipPath>
</defs>
</svg>
